<svg width="40" height="36" viewBox="0 0 40 36" fill="none" xmlns="http://www.w3.org/2000/svg">
<path d="M36.492 7.70802H30.524C30.14 7.70802 29.824 7.39602 29.824 7.00802V1.16402C29.824 0.776022 29.508 0.460022 29.12 0.460022H10.876C10.488 0.460022 10.176 0.776022 10.176 1.16402V7.00802C10.176 7.39602 9.86 7.70802 9.472 7.70802H3.508C1.572 7.70802 0 9.28402 0 11.22V31.104C0 33.04 1.568 34.612 3.508 34.612H5.2V34.792C5.2 35.196 5.824 35.528 6.6 35.528H12.272C13.048 35.528 13.672 35.196 13.672 34.792V34.612H26.888V34.792C26.888 35.196 27.52 35.528 28.292 35.528H33.964C34.736 35.528 35.368 35.196 35.368 34.792V34.612H36.492C38.428 34.612 40 33.044 40 31.104V11.216C40 9.28402 38.428 7.70802 36.492 7.70802ZM16.14 4.55602C16.14 4.16802 16.456 3.85202 16.84 3.85202H23.156C23.548 3.85202 23.86 4.16802 23.86 4.55602V7.00802C23.86 7.39602 23.548 7.70802 23.156 7.70802H21.688V7.68802C21.688 7.30402 21.372 6.98802 20.988 6.98802H18.996C18.608 6.98802 18.296 7.30402 18.296 7.68802V7.70802H16.84C16.456 7.70802 16.14 7.39602 16.14 7.00802V4.55602ZM25.348 22.784C25.348 22.972 25.196 23.124 25.004 23.124H22.16C21.968 23.124 21.816 23.276 21.816 23.464V26.316C21.816 26.504 21.664 26.656 21.476 26.656H19.092C18.9 26.656 18.748 26.504 18.748 26.316V23.464C18.748 23.276 18.596 23.124 18.408 23.124H15.556C15.368 23.124 15.22 22.972 15.22 22.784V20.396C15.22 20.212 15.372 20.056 15.556 20.056H18.408C18.596 20.056 18.748 19.908 18.748 19.716V16.868C18.748 16.68 18.9 16.528 19.092 16.528H21.476C21.664 16.528 21.816 16.68 21.816 16.868V19.716C21.816 19.908 21.968 20.056 22.16 20.056H25.004C25.196 20.056 25.348 20.212 25.348 20.396V22.784Z" fill="#558EFF"/>
</svg>
