<svg width="36" height="34" viewBox="0 0 36 34" fill="none" xmlns="http://www.w3.org/2000/svg">
<path d="M1.75185 12.0282H34.2478C34.2478 12.0282 35.1558 11.2842 34.2478 10.3362L18.0038 0.776184L1.75185 10.3322C1.75185 10.3322 0.627845 11.3442 1.75185 12.0282ZM35.3078 31.9122L33.3478 30.2082C33.2398 30.1162 32.9958 30.0402 32.7958 30.0402L3.60385 30.0842C3.40785 30.0842 3.14784 30.1562 3.02784 30.2442L0.719845 31.9202C0.599845 32.0082 0.503845 32.1682 0.503845 32.2762V33.0242C0.503845 33.1322 0.663845 33.2242 0.863845 33.2242H35.1478C35.3438 33.2242 35.5078 33.1362 35.5078 33.0242V32.2802C35.4998 32.1682 35.4118 32.0042 35.3078 31.9122ZM30.1598 13.3522H33.1518V28.3482H30.1598V13.3522ZM25.2638 13.3522H28.2558V28.3482H25.2638V13.3522ZM8.20784 13.3522H11.1998V28.3482H8.20784V13.3522ZM3.31185 13.3522H6.30384V28.3482H3.31185V13.3522ZM18.0638 28.3282C18.2918 28.3282 18.5198 28.2962 18.7358 28.2322V26.4162C19.6638 26.2082 20.3718 25.8082 20.8598 25.2162C21.3438 24.6282 21.5878 23.9042 21.5878 23.0482C21.5878 22.5362 21.5238 22.1122 21.3998 21.7722C21.2758 21.4322 21.0998 21.1442 20.8758 20.9122C20.6518 20.6762 20.3758 20.4762 20.0518 20.3082C19.7278 20.1402 19.3678 19.9722 18.9718 19.8082L18.0318 19.4162C17.8758 19.3522 17.7198 19.2842 17.5638 19.2122C17.4078 19.1402 17.2678 19.0522 17.1398 18.9522C17.0158 18.8522 16.9158 18.7322 16.8438 18.5842C16.7718 18.4362 16.7358 18.2602 16.7358 18.0522C16.7358 17.8122 16.7838 17.6162 16.8758 17.4642C16.9678 17.3122 17.0878 17.1962 17.2358 17.1122C17.3838 17.0282 17.5478 16.9722 17.7278 16.9482C17.9118 16.9242 18.0918 16.9082 18.2678 16.9082C18.5598 16.9082 18.8198 16.9202 19.0518 16.9482C19.2798 16.9762 19.4878 17.0082 19.6718 17.0482C19.8558 17.0882 20.0278 17.1442 20.1878 17.2042C20.3478 17.2682 20.5078 17.3282 20.6638 17.3922C20.9358 16.8082 21.1038 16.2122 21.1638 15.6082C20.7358 15.4602 20.3278 15.3442 19.9438 15.2562C19.5558 15.1682 19.1558 15.1082 18.7358 15.0762V13.4642C18.4958 13.4002 18.2678 13.3722 18.0478 13.3722C17.8198 13.3722 17.5918 13.4042 17.3758 13.4642V15.1242C16.4358 15.2402 15.6998 15.5682 15.1678 16.1122C14.6358 16.6562 14.3678 17.3962 14.3678 18.3362C14.3678 18.7762 14.4238 19.1442 14.5318 19.4482C14.6398 19.7522 14.7998 20.0162 14.9998 20.2402C15.2038 20.4642 15.4478 20.6562 15.7278 20.8202C16.0078 20.9842 16.3238 21.1362 16.6678 21.2842L17.4998 21.6442C17.6758 21.7282 17.8598 21.8082 18.0478 21.8802C18.2358 21.9522 18.4038 22.0402 18.5558 22.1482C18.7078 22.2522 18.8318 22.3842 18.9318 22.5482C19.0318 22.7082 19.0798 22.9162 19.0798 23.1682C19.0798 23.6682 18.8998 24.0322 18.5398 24.2562C18.1798 24.4802 17.6718 24.5922 17.0118 24.5922C16.5718 24.5922 16.1598 24.5602 15.7758 24.4922C15.3878 24.4242 14.9758 24.3002 14.5398 24.1242C14.4238 24.4602 14.3238 24.7802 14.2438 25.0882C14.1598 25.3962 14.1038 25.7002 14.0718 26.0042C14.3318 26.1082 14.5838 26.1962 14.8238 26.2722C15.0638 26.3442 15.3078 26.4042 15.5518 26.4522C15.7958 26.5002 16.0558 26.5322 16.3278 26.5522C16.5998 26.5722 16.9078 26.5842 17.2518 26.5842H17.3758V28.2442C17.6038 28.2962 17.8358 28.3282 18.0638 28.3282Z" fill="#558EFF"/>
</svg>
