<svg width="30" height="40" viewBox="0 0 30 40" fill="none" xmlns="http://www.w3.org/2000/svg">
<path d="M22.912 20.76C22.912 21.856 23.8 22.74 24.896 22.74C25.984 22.74 26.876 21.852 26.876 20.76C26.876 19.664 25.988 18.78 24.896 18.78C23.804 18.78 22.912 19.664 22.912 20.76ZM21.508 20.124C21.156 20.124 20.884 20.408 20.884 20.76V24.584C20.884 24.936 21.144 25.244 21.492 25.244H26.164C26.516 25.244 26.8 24.944 26.8 24.592C26.804 24.24 26.516 23.94 26.164 23.94H22.34C22.228 23.94 22.124 23.852 22.124 23.736V20.76C22.128 20.408 21.86 20.124 21.508 20.124ZM3.94799 24.992H19.872C20.104 24.992 20.268 24.816 20.268 24.584V21.544C20.268 21.308 20.104 21.088 19.872 21.088H5.64799C4.47199 21.088 3.52799 21.992 3.52799 23.064V24.584C3.52399 24.816 3.71199 24.992 3.94799 24.992ZM18.28 12.168C20.788 13.864 23.328 14.488 23.956 13.56C24.588 12.632 23.068 10.504 20.56 8.804C18.056 7.108 15.516 6.488 14.884 7.412C14.256 8.34 15.776 10.472 18.28 12.168ZM19.788 11.924C19.652 12.128 19.096 11.992 18.552 11.62C18.004 11.252 17.668 10.784 17.808 10.584C17.948 10.384 18.5 10.516 19.044 10.888C19.592 11.256 19.924 11.72 19.788 11.924ZM22.7 12.812C22.56 13.016 22.012 12.88 21.464 12.512C20.916 12.136 20.588 11.676 20.724 11.472C20.86 11.272 21.416 11.404 21.964 11.776C22.508 12.148 22.84 12.612 22.7 12.812ZM18.98 9.052C19.116 8.852 19.672 8.984 20.216 9.356C20.768 9.724 21.092 10.192 20.96 10.392C20.82 10.592 20.268 10.46 19.72 10.092C19.172 9.72 18.844 9.256 18.98 9.052ZM16.048 8.112C16.188 7.912 16.744 8.044 17.288 8.416C17.836 8.784 18.172 9.252 18.032 9.452C17.892 9.652 17.336 9.52 16.796 9.148C16.244 8.78 15.912 8.312 16.048 8.112ZM24.62 12.576C24.964 12.06 24.952 11.384 24.592 10.88C24.096 10.188 23.244 9.184 21.956 8.248L24.032 5.592C24.132 5.464 24.18 5.312 24.18 5.152V0.712C24.18 0.32 23.86 0 23.464 0C23.072 0 22.752 0.316 22.752 0.712V4.904L20.748 7.484C20.748 7.484 19.088 6.344 16.984 5.952C16.52 5.864 16.048 6.048 15.764 6.424L15.752 6.44C15.752 6.44 18.176 6.62 20.884 8.516C23.828 10.6 24.62 12.576 24.62 12.576ZM29.756 25.804H0.23999C0.23999 27.684 1.76399 29.208 3.65199 29.208H13.196C13.196 29.208 13.2 29.212 13.2 29.216V32.976C12.892 32.996 12.644 33.296 12.644 33.672V36.112C12.644 36.488 12.892 36.788 13.2 36.808V39.384C13.2 39.732 13.48 39.996 13.832 39.996H16.16C16.512 39.996 16.796 39.736 16.796 39.384V29.212H26.344C28.228 29.208 29.756 27.684 29.756 25.804Z" fill="#558EFF"/>
</svg>
