<svg width="21" height="40" viewBox="0 0 21 40" fill="none" xmlns="http://www.w3.org/2000/svg">
<path d="M12.7759 16.7639V17.4879C12.7759 21.7719 12.7719 26.0599 12.7879 30.3479C12.7879 30.7639 12.6679 30.8599 12.2719 30.8519C10.9999 30.8279 9.73192 30.8399 8.45992 30.8479C8.31192 30.8479 8.09592 30.7639 8.07992 31.0439C8.06392 31.3479 8.29592 31.2839 8.46392 31.2839L12.3679 31.2879C12.4959 31.2879 12.7039 31.2239 12.7319 31.3759C12.7719 31.5879 12.5359 31.5559 12.4039 31.5919L8.47192 32.6639C8.38392 32.6879 8.29192 32.6999 8.20792 32.7359C8.03992 32.8039 8.05992 32.9559 8.08792 33.0879C8.11992 33.2639 8.27192 33.1919 8.34392 33.1559C9.06392 32.7919 9.69992 33.0999 10.3519 33.3679C11.0559 33.6599 11.7679 33.9359 12.4839 34.1999C12.7079 34.2839 12.8079 34.4039 12.7719 34.6399C12.7319 34.9159 12.5159 34.8039 12.3759 34.8079C11.0759 34.8159 9.77592 34.8119 8.47192 34.8159C8.31192 34.8159 8.08392 34.7279 8.07192 35.0399C8.05992 35.3559 8.29192 35.2719 8.45592 35.2719C8.97192 35.2799 9.48792 35.2759 10.0359 35.3599C9.47592 35.6839 8.92392 36.0159 8.35592 36.3239C8.08792 36.4679 8.00392 36.6399 8.13992 36.9719C8.80792 36.5919 9.49992 36.2599 10.1159 35.8239C10.8399 35.3119 11.6159 35.2079 12.4559 35.2639C12.6879 35.2799 12.7679 35.3319 12.7799 35.5759C12.8279 36.6639 12.8359 36.6719 11.7879 36.8759C10.7079 37.0839 9.62792 37.2759 8.54392 37.4759C8.29592 37.5239 8.07192 37.5359 8.02392 37.9039C7.86392 39.1719 6.79992 40.0599 5.59592 39.9879C4.28392 39.9039 3.33592 38.9119 3.33192 37.5679C3.31992 34.9799 3.33192 32.3919 3.33192 29.8079C3.33192 29.1479 3.32792 28.4919 3.33592 27.8319C3.33992 27.6279 3.28792 27.5559 3.06792 27.5079C1.60792 27.1799 0.971924 26.3399 0.971924 24.8359C0.975924 21.2679 0.971924 17.7039 0.971924 14.1359C0.971924 13.7519 0.971923 13.3679 1.07592 12.9959C1.35992 11.9879 2.25592 11.2999 3.31992 11.2879C4.67992 11.2759 6.04392 11.2959 7.40792 11.2719C7.77192 11.2679 7.82792 11.3959 7.82392 11.7199C7.81192 15.9759 7.81592 20.2319 7.81992 24.4879C7.81992 24.6239 7.81992 24.7639 7.82392 24.8999C7.82792 25.0399 7.89992 25.1399 8.04392 25.1399C8.18392 25.1399 8.26392 25.0399 8.27592 24.9039C8.28792 24.7679 8.28392 24.6279 8.28392 24.4919C8.28392 20.2519 8.29192 16.0119 8.27192 11.7719C8.27192 11.3519 8.39192 11.2719 8.77992 11.2799C10.0799 11.3039 11.3799 11.2959 12.6839 11.2839C13.3119 11.2799 13.8479 11.4919 14.3239 11.8839C15.7439 13.0479 17.1599 14.2159 18.5919 15.3679C19.2599 15.9039 19.5959 16.5839 19.5759 17.4359C19.5759 17.5439 19.5719 17.6519 19.5719 17.7559C19.5759 18.0759 19.4719 18.4599 19.6119 18.7039C19.7759 18.9879 20.1959 18.7799 20.4999 18.8199C20.7919 18.8559 20.9679 18.9919 20.9679 19.2799C20.9719 20.9319 21.0559 22.5879 20.9279 24.2359C20.8679 25.0359 20.4319 25.7399 19.9759 26.3959C19.3839 27.2519 18.7719 28.0919 18.1559 28.9319C17.8279 29.3799 17.6839 29.8519 17.6879 30.4239C17.7119 33.3319 17.6959 36.2399 17.6959 39.1479C17.6959 39.2839 17.7039 39.4239 17.6799 39.5599C17.6319 39.8399 17.4559 40.0039 17.1719 39.9799C16.9119 39.9599 16.7519 39.7919 16.7399 39.5319C16.7239 39.2559 16.7319 38.9799 16.7319 38.7039C16.7319 35.9479 16.7199 33.1919 16.7479 30.4359C16.7519 29.8639 16.6039 29.3919 16.2759 28.9439C15.6719 28.1159 15.0639 27.2919 14.4839 26.4439C14.0159 25.7599 13.6159 25.0399 13.4839 24.1999C13.4559 24.0199 13.4319 23.8359 13.4279 23.6519C13.4239 22.2759 13.4239 20.8959 13.4279 19.5199C13.4279 18.9479 13.5639 18.8159 14.1239 18.8119C14.2159 18.8119 14.3119 18.8239 14.3999 18.8079C14.5479 18.7759 14.7599 18.9199 14.8319 18.6799C14.8879 18.4839 14.7919 18.3359 14.6279 18.2119C14.0479 17.7679 13.4639 17.2999 12.7759 16.7639ZM17.2239 28.6159C17.9279 27.5879 18.6999 26.6799 19.3239 25.6639C19.6679 25.0999 20.0119 24.5159 20.0319 23.8479C20.0719 22.5799 20.0439 21.3079 20.0479 20.0399C20.0479 19.8559 20.0039 19.7559 19.7919 19.7639C19.5879 19.7679 19.5799 19.8919 19.5799 20.0399V20.7759C19.5799 21.5719 19.5959 22.3679 19.5759 23.1599C19.5399 24.3959 18.4999 25.3999 17.2559 25.4319C16.0599 25.4599 14.9719 24.5279 14.8999 23.3199C14.8359 22.2679 14.8719 21.2119 14.8599 20.1559C14.8599 19.9799 14.9119 19.7599 14.6119 19.7759C14.3319 19.7919 14.4239 20.0119 14.4239 20.1559C14.4159 21.3479 14.4239 22.5439 14.4199 23.7319C14.4199 24.1239 14.5239 24.4879 14.6839 24.8359C15.3239 26.2239 16.3599 27.3359 17.2239 28.6159ZM8.05992 -9.26175e-05C10.6719 0.0159074 12.7959 2.15191 12.7719 4.74791C12.7519 7.32791 10.6159 9.44391 8.04392 9.43991C5.41192 9.43591 3.31592 7.27991 3.33592 4.59591C3.35592 2.09191 5.52392 -0.0160926 8.05992 -9.26175e-05ZM9.91592 39.9039C10.4919 39.0839 11.0399 38.2639 11.6399 37.4839C11.8759 37.1759 12.3079 37.2519 12.6599 37.2079C12.7799 37.1919 12.7599 37.3279 12.7719 37.4159C12.9599 38.9439 11.4399 40.2959 9.91592 39.9039ZM11.0639 37.4799C10.5199 38.2599 10.0359 38.9399 9.55992 39.6279C9.45192 39.7839 9.35192 39.7559 9.21592 39.6759C8.67592 39.3599 8.33992 38.8919 8.13592 38.3079C8.05192 38.0759 8.16792 38.0079 8.35992 37.9719C9.22792 37.8159 10.0919 37.6559 11.0639 37.4799ZM9.95192 32.7279C10.8879 32.4759 11.7079 32.2599 12.5279 32.0279C12.7239 31.9719 12.7759 32.0399 12.7719 32.2199C12.7679 32.6759 12.7719 33.1359 12.7719 33.5919C12.7719 33.7519 12.7199 33.8159 12.5519 33.7519C11.7279 33.4239 10.8959 33.0959 9.95192 32.7279Z" fill="#558EFF"/>
</svg>
